# xmcd
#
# Track frame offsets:
#	150
#	19313
#	35467
#	60349
#	81002
#	99146
#	124846
#	144003
#	160114
#	184956
#	205611
#	223742
#
# Disc length: 3326 seconds
#
# Revision: 0
# Processed by: cddbd v1.5.2PL0 Copyright (c) Steve Scherf et al.
# Submitted via: audiograbber 1.83.01
#
DISCID=960cfc0c
DTITLE=Cross Canadian Ragweed - CB 20600
DYEAR=1900
DGENRE=Country
TTITLE0=Alabama (Vocals)
TTITLE1=Fightin' For (Vocals)
TTITLE2=Seventeen (Vocals)
TTITLE3=Sick And Tired (Vocals)
TTITLE4=This Time Around (Vocals)
TTITLE5=Sister (Vocals)
TTITLE6=Alabama
TTITLE7=Fightin' For
TTITLE8=Seventeen
TTITLE9=Sick And Tired
TTITLE10=This Time Around
TTITLE11=Sister
EXTD=
EXTT0=
EXTT1=
EXTT2=
EXTT3=
EXTT4=
EXTT5=
EXTT6=
EXTT7=
EXTT8=
EXTT9=
EXTT10=
EXTT11=
PLAYORDER=
